<?xml version="1.0" encoding="UTF-8"?>
<!DOCTYPE svg PUBLIC "-//W3C//DTD SVG 1.1//EN" "http://www.w3.org/Graphics/SVG/1.1/DTD/svg11.dtd">
<svg version="1.1" xmlns="http://www.w3.org/2000/svg" xmlns:xlink="http://www.w3.org/1999/xlink" x="0" y="0" width="1417.323" height="384.095" viewBox="0, 0, 1417.323, 384.095">
  <g id="Layer_1">
    <g>
      <path d="M1127.493,178.316 C1127.494,149.767 1119.336,142.018 1089.561,142.018 C1073.247,142.018 1059.788,146.912 1052.853,155.885 C1045.92,165.266 1043.881,175.871 1043.88,205.645 L1043.88,285.585 L971.688,285.585 L971.688,281.416 L948.786,286.643 C894.137,290.832 917.604,290.069 878.453,290.48 C851.619,289.434 822.959,291.741 797.458,281.725 L797.458,285.585 L729.344,285.585 L729.344,256.627 L725.673,256.627 C714.662,281.1 691.821,290.481 643.284,290.48 C620.31,289.917 595.431,290.18 574.931,278.34 L574.931,365.936 L502.738,365.936 L502.738,260.707 L499.476,260.707 C483.57,284.364 467.255,290.482 418.31,290.482 C394.194,290.032 369.377,290.762 346.077,283.351 C341.046,281.751 336.568,278.762 331.814,276.468 L331.814,285.587 L259.621,285.587 L259.621,174.578 L204.939,285.585 L111.537,285.585 L16.504,92.664 L98.486,92.664 L158.442,229.706 L217.991,92.664 L259.621,92.664 L259.621,13.539 L331.814,13.539 L331.814,101.582 C358.869,87.48 389.808,88.118 419.534,87.771 C470.518,87.772 487.648,93.89 503.147,118.769 L506.817,118.767 L506.817,92.665 L536.015,92.665 L536.015,92.664 L608.207,92.664 L608.207,180.763 C608.209,208.908 610.248,217.881 617.996,225.221 C626.563,233.38 637.575,235.827 664.901,235.826 C690.598,235.827 703.65,232.972 712.622,225.221 C722.819,216.25 725.267,206.053 725.265,170.159 L725.265,92.664 L797.458,92.664 L797.458,96.27 C825.783,86.369 856.216,87.483 885.796,87.363 C911.711,88.615 947.705,85.271 971.688,95.401 L971.688,92.664 L1039.801,92.664 L1039.801,121.621 L1043.472,121.621 C1056.933,97.152 1077.326,87.771 1117.704,87.771 L1117.704,87.769 C1142.748,88.96 1131.331,86.949 1152.135,92.664 L1205.635,92.664 L1260.697,232.97 L1321.877,92.664 L1401.819,92.664 L1299.036,310.465 C1279.052,352.477 1277.828,354.517 1265.591,361.857 C1253.764,369.2 1237.857,372.463 1212.977,372.461 C1197.886,372.463 1186.874,372.055 1181.979,371.238 L1181.978,321.885 C1186.058,321.479 1186.466,321.479 1198.293,321.478 C1222.358,321.887 1229.7,315.361 1241.527,285.586 L1212.568,285.585 L1164.717,178.316 L1127.493,178.316 z M971.688,204.827 L826.246,204.827 C826.249,224.407 828.288,230.933 835.221,236.235 C842.971,241.945 858.062,244.393 884.165,244.392 C930.255,244.393 938.82,241.13 941.674,223.999 L971.685,223.997 L971.685,223.996 L971.688,223.996 L971.688,204.827 z M437.48,142.017 C383.234,142.018 375.077,148.544 375.076,193.001 C375.077,215.026 378.34,223.591 388.944,229.301 C397.918,233.788 414.232,236.235 438.296,236.235 C493.359,236.235 502.74,229.302 502.739,188.923 C502.74,148.952 492.951,142.018 437.48,142.018 z M887.018,132.227 C838.485,132.229 827.065,138.347 826.248,165.266 L942.488,165.264 C942.083,150.175 941.267,146.504 936.78,142.018 C930.255,135.084 915.572,132.229 887.02,132.229 L887.018,132.227 z M788.89,99.602 C788.394,99.795 788.623,99.684 788.198,99.927 L788.89,99.602 z" fill="#9D95D0"/>
      <path d="M1127.493,178.316 C1127.494,149.767 1119.336,142.018 1089.561,142.018 C1073.247,142.018 1059.788,146.912 1052.853,155.885 C1045.92,165.266 1043.881,175.871 1043.88,205.645 L1043.88,285.585 L971.688,285.585 L971.688,281.416 L948.786,286.643 C894.137,290.832 917.604,290.069 878.453,290.48 C851.619,289.434 822.959,291.741 797.458,281.725 L797.458,285.585 L729.344,285.585 L729.344,256.627 L725.673,256.627 C714.662,281.1 691.821,290.481 643.284,290.48 C620.31,289.917 595.431,290.18 574.931,278.34 L574.931,365.936 L502.738,365.936 L502.738,260.707 L499.476,260.707 C483.57,284.364 467.255,290.482 418.31,290.482 C394.194,290.032 369.377,290.762 346.077,283.351 C341.046,281.751 336.568,278.762 331.814,276.468 L331.814,285.587 L259.621,285.587 L259.621,174.578 L204.939,285.585 L111.537,285.585 L16.504,92.664 L98.486,92.664 L158.442,229.706 L217.991,92.664 L259.621,92.664 L259.621,13.539 L331.814,13.539 L331.814,101.582 C358.869,87.48 389.808,88.118 419.534,87.771 C470.518,87.772 487.648,93.89 503.147,118.769 L506.817,118.767 L506.817,92.665 L536.015,92.665 L536.015,92.664 L608.207,92.664 L608.207,180.763 C608.209,208.908 610.248,217.881 617.996,225.221 C626.563,233.38 637.575,235.827 664.901,235.826 C690.598,235.827 703.65,232.972 712.622,225.221 C722.819,216.25 725.267,206.053 725.265,170.159 L725.265,92.664 L797.458,92.664 L797.458,96.27 C825.783,86.369 856.216,87.483 885.796,87.363 C911.711,88.615 947.705,85.271 971.688,95.401 L971.688,92.664 L1039.801,92.664 L1039.801,121.621 L1043.472,121.621 C1056.933,97.152 1077.326,87.771 1117.704,87.771 L1117.704,87.769 C1142.748,88.96 1131.331,86.949 1152.135,92.664 L1205.635,92.664 L1260.697,232.97 L1321.877,92.664 L1401.819,92.664 L1299.036,310.465 C1279.052,352.477 1277.828,354.517 1265.591,361.857 C1253.764,369.2 1237.857,372.463 1212.977,372.461 C1197.886,372.463 1186.874,372.055 1181.979,371.238 L1181.978,321.885 C1186.058,321.479 1186.466,321.479 1198.293,321.478 C1222.358,321.887 1229.7,315.361 1241.527,285.586 L1212.568,285.585 L1164.717,178.316 L1127.493,178.316 z M971.688,204.827 L826.246,204.827 C826.249,224.407 828.288,230.933 835.221,236.235 C842.971,241.945 858.062,244.393 884.165,244.392 C930.255,244.393 938.82,241.13 941.674,223.999 L971.685,223.997 L971.685,223.996 L971.688,223.996 L971.688,204.827 z M437.48,142.017 C383.234,142.018 375.077,148.544 375.076,193.001 C375.077,215.026 378.34,223.591 388.944,229.301 C397.918,233.788 414.232,236.235 438.296,236.235 C493.359,236.235 502.74,229.302 502.739,188.923 C502.74,148.952 492.951,142.018 437.48,142.018 z M887.018,132.227 C838.485,132.229 827.065,138.347 826.248,165.266 L942.488,165.264 C942.083,150.175 941.267,146.504 936.78,142.018 C930.255,135.084 915.572,132.229 887.02,132.229 L887.018,132.227 z M788.89,99.602 C788.394,99.795 788.623,99.684 788.198,99.927 L788.89,99.602 z" fill-opacity="0" stroke="#000000" stroke-width="15"/>
    </g>
    <path d="M1205.135,92.164 L1260.197,232.47 L1321.377,92.164 L1401.319,92.164 L1298.536,309.965 C1278.552,351.977 1277.328,354.016 1265.091,361.356 C1253.264,368.699 1237.357,371.962 1212.476,371.961 C1197.386,371.962 1186.374,371.554 1181.478,370.737 L1181.478,321.385 C1185.558,320.979 1185.966,320.979 1197.793,320.977 C1221.858,321.387 1229.2,314.861 1241.027,285.085 L1212.068,285.085 L1164.217,177.816 L1195.107,177.816 L1195.107,164.764 C1195.064,138.168 1191.554,112.444 1167.484,96.518 C1162.915,93.495 1156.918,93.615 1151.635,92.164 L1205.135,92.164 z" fill="#9D95D0"/>
    <path d="M1117.204,87.269 C1142.247,88.46 1130.831,86.448 1151.635,92.164 L1126.008,92.164 L1164.217,177.816 L1126.993,177.816 C1126.993,149.267 1118.836,141.517 1089.061,141.517 C1072.747,141.517 1059.287,146.412 1052.353,155.385 C1045.42,164.766 1043.38,175.37 1043.38,205.144 L1043.38,285.085 L971.187,285.085 L971.187,280.915 C1000.031,274.755 1008.603,249.143 1012.957,223.497 L971.187,223.496 L971.187,204.326 L1014.181,204.326 C1014.591,196.171 1014.591,187.198 1014.589,184.75 C1014.591,141.109 1008.065,119.492 990.932,105.215 C980.241,97.642 986.63,101.426 971.187,94.901 L971.187,92.164 L1039.301,92.164 L1039.301,121.122 L1042.972,121.122 C1056.432,96.652 1076.826,87.271 1117.204,87.271 z" fill="#AC69D0"/>
    <path d="M1151.635,92.164 C1188.908,98.303 1193.587,132.997 1195.107,164.765 L1195.107,177.816 L1164.217,177.816 L1126.008,92.164 L1151.635,92.164 z" fill="#2C72C1"/>
    <path d="M885.295,86.862 C911.21,88.114 947.205,84.77 971.187,94.901 L971.187,204.327 L825.746,204.327 C825.748,223.907 827.788,230.432 834.721,235.735 C842.471,241.445 857.562,243.892 883.665,243.892 C929.755,243.892 938.32,240.629 941.174,223.499 L971.187,223.497 L971.187,280.917 C941.034,290.04 909.158,289.711 877.953,289.98 C851.119,288.934 822.458,291.241 796.958,281.224 L796.956,95.77 C824.996,85.711 855.888,87.132 885.296,86.863 z M886.518,131.727 C837.984,131.729 826.564,137.847 825.747,164.766 L941.988,164.764 C941.583,149.675 940.767,146.004 936.279,141.517 C929.755,134.584 915.071,131.729 886.52,131.728 z" fill="#9D95D0"/>
    <path d="M1012.957,223.496 C1010.389,250.047 998.72,273.896 971.187,280.917 L971.187,223.496 L1012.957,223.496 z" fill="#2C72C1"/>
    <path d="M971.187,94.901 C986.63,101.426 980.241,97.642 990.932,105.216 C1008.065,119.493 1014.591,141.109 1014.59,184.751 C1014.591,187.199 1014.591,196.172 1014.182,204.329 L971.187,204.326 L971.187,94.901 z" fill="#2C72C1"/>
    <path d="M607.707,92.164 L607.707,180.263 C607.708,208.408 609.748,217.381 617.496,224.721 C626.062,232.88 637.075,235.327 664.401,235.325 C690.097,235.327 703.149,232.472 712.121,224.721 C722.319,215.749 724.766,205.552 724.765,169.659 L724.765,92.164 L796.958,92.164 L796.958,95.771 C784.322,100.519 790.033,97.665 779.658,103.993 C759.266,118.269 753.556,137.439 753.556,189.238 C753.556,238.59 759.266,257.76 778.028,272.035 C788.649,278.853 782.47,275.533 796.958,281.224 L796.958,285.085 L728.844,285.085 L728.844,256.126 L725.173,256.126 C714.162,280.6 691.321,289.981 642.784,289.98 C619.81,289.416 594.93,289.68 574.431,277.839 L574.431,92.165 L535.515,92.165 L535.515,92.164 L607.707,92.164 z" fill="#AC69D0"/>
    <path d="M796.958,95.772 L796.958,281.225 C782.47,275.533 788.649,278.853 778.027,272.035 C759.266,257.76 753.556,238.59 753.555,189.238 C753.556,137.439 759.266,118.269 779.658,103.994 C790.033,97.665 784.322,100.519 796.958,95.772 z" fill="#2C72C1"/>
    <path d="M419.033,87.269 C470.018,87.27 487.148,93.388 502.646,118.267 L506.317,118.267 L506.317,92.164 L535.515,92.164 L535.515,180.262 C535.516,232.878 539.187,247.561 556.725,265.507 C566.737,274.348 560.962,270.06 574.431,277.838 L574.431,365.435 L502.238,365.435 L502.238,260.205 L498.975,260.205 C483.069,283.862 466.755,289.98 417.81,289.98 C393.694,289.53 368.877,290.26 345.577,282.849 C340.546,281.249 336.068,278.26 331.314,275.966 L331.314,101.081 C358.368,86.978 389.307,87.616 419.033,87.269 z M436.98,141.516 C382.734,141.516 374.577,148.042 374.576,192.499 C374.577,214.524 377.84,223.089 388.443,228.799 C397.417,233.286 413.732,235.733 437.795,235.733 C492.858,235.733 502.239,228.799 502.238,188.421 C502.239,148.45 492.45,141.516 436.98,141.516 z" fill="#9D95D0"/>
    <path d="M574.431,92.165 L574.431,277.839 C560.962,270.062 566.737,274.35 556.724,265.508 C539.187,247.563 535.516,232.879 535.515,180.263 L535.515,92.165 L574.431,92.165 z" fill="#2C72C1"/>
    <path d="M331.314,13.039 L331.314,101.082 C331.131,101.16 330.949,101.239 330.767,101.317 C326.538,105.112 321.562,108.212 318.081,112.702 C301.234,134.428 302.761,166.264 302.383,192.093 C302.384,236.143 307.686,255.72 322.37,269.588 C329.765,275.414 326.546,273.668 331.314,275.967 L331.314,285.087 L259.121,285.087 L259.121,174.078 L299.472,92.164 L259.121,92.164 L259.121,13.039 L331.314,13.039 z" fill="#AC69D0"/>
    <path d="M331.314,101.082 L331.314,275.967 C326.546,273.668 329.765,275.414 322.369,269.588 C307.686,255.72 302.384,236.143 302.383,192.093 C303.539,165.971 300.937,134.81 318.081,112.702 C322.309,108.907 326.538,105.112 330.767,101.317 C330.949,101.239 331.131,101.161 331.314,101.082 z" fill="#2C72C1"/>
    <path d="M97.985,92.164 L157.942,229.207 L217.49,92.164 L259.121,92.164 L259.121,174.078 L204.439,285.085 L111.037,285.085 L16.004,92.164 L97.985,92.164 z" fill="#9D95D0"/>
    <path d="M299.472,92.164 L259.121,174.078 L259.121,92.164 L299.472,92.164 z" fill="#2C72C1"/>
  </g>
</svg>
